Coordinates
version=1
nRows=8
nColumns=36
inDegrees=yes

Units are S.I. units (second, meters, Newtons, ...)
If the header above contains a line with 'inDegrees', this indicates whether rotational values are in degrees (yes) or radians (no).

endheader
time	pelvis_tilt	pelvis_list	pelvis_rotation	pelvis_tx	pelvis_ty	pelvis_tz	hip_flexion_r	hip_adduction_r	hip_rotation_r	knee_angle_r	knee_angle_r_beta	ankle_angle_r	subtalar_angle_r	mtp_angle_r	hip_flexion_l	hip_adduction_l	hip_rotation_l	knee_angle_l	knee_angle_l_beta	ankle_angle_l	subtalar_angle_l	mtp_angle_l	lumbar_extension	lumbar_bending	lumbar_rotation	arm_flex_r	arm_add_r	arm_rot_r	elbow_flex_r	pro_sup_r	arm_flex_l	arm_add_l	arm_rot_l	elbow_flex_l	pro_sup_l
     10.70000000	      4.03038277	     -0.62273273	      2.99432045	      0.29603166	      0.85659669	      0.11502995	     20.39444309	     10.52527356	     -3.43152235	     48.39832693	      0.84471016	     23.39455502	    -20.13699968	     -7.49999987	     34.26292728	     -6.04281009	      2.78234108	      9.53633229	      0.16644040	     -6.41454128	      0.03446476	     -7.49999987	    -17.74165983	      0.15132115	     -3.62176643	     53.99655597	      9.71633776	     67.19548163	    130.42576765	     92.08308467	     42.37889639	     11.41117211	     68.03739629	    123.16645060	     69.56323440
     10.71666670	      3.74082601	      0.00577029	      2.91670576	      0.29700764	      0.86370764	      0.11480488	     19.87623475	      9.60413191	     -3.42006757	     46.73767206	      0.81572626	     22.37729352	    -19.23440077	     -7.49999987	     34.04067943	     -5.43848192	      2.69593806	     11.35252854	      0.19813900	     -6.01113664	     -0.33321440	     -7.49999987	    -17.26351179	     -0.59847447	     -3.43416527	     53.77263871	      9.70753052	     67.31710381	    130.16153222	     91.93060183	     42.08803377	     11.49277398	     68.06751679	    123.35038461	     69.54711096
     10.73333330	      3.78946802	      0.11069669	      2.93189249	      0.29821172	      0.87054991	      0.11499669	     18.98471000	      9.27267584	     -3.32847234	     45.42211923	      0.79276553	     21.05419876	    -18.39965071	     -7.49999987	     33.67867896	     -5.23682446	      3.27883103	     13.08074856	      0.22830213	     -4.71637784	     -0.43764432	     -7.49999987	    -17.01571855	     -0.48646905	     -3.15286757	     53.56264041	      9.67470503	     67.06527920	    130.33704548	     92.08917637	     41.76839097	     11.61619326	     68.04389282	    123.90641002	     69.61863439
     10.75000000	      3.15831788	      0.81280693	      3.00881745	      0.29833003	      0.87320111	      0.11450894	     18.60231533	      8.19303274	     -3.39510956	     43.76895799	      0.76391243	     20.25323874	    -17.15299719	     -7.49999987	     33.88272771	     -4.43280045	      3.66805511	     15.34756097	      0.26786547	     -3.76537209	     -0.38105424	     -7.49999987	    -16.22288299	     -1.20378842	     -3.23909629	     53.17069160	      9.81985068	     66.94839477	    130.17437573	     91.93321945	     41.50386858	     11.41613220	     68.18487195	    124.08877132	     69.62166740
     10.76666670	      2.32596385	      1.54785457	      3.03528159	      0.30272629	      0.87968224	      0.11160495	     17.77520193	      7.11516651	     -3.21563140	     41.38933837	      0.72238023	     19.53527347	    -16.19370560	     -7.49999987	     34.47393412	     -3.59086766	      3.81342005	     19.07321937	      0.33289048	     -2.68708682	     -0.55870254	     -7.49999987	    -15.17699677	     -1.88508221	     -3.63799808	     52.75965615	      9.82160068	     67.32851167	    130.56704217	     91.95198688	     41.19949893	     11.14300322	     68.11053986	    123.71378441	     69.63086043
     10.78333330	      1.50356935	      2.22601380	      2.81464387	      0.30301280	      0.88515005	      0.11193058	     16.68537221	      6.25583275	     -2.77045246	     38.31250936	      0.66867943	     19.40895787	    -14.58173756	     -7.49999987	     35.25157568	     -3.09186376	      3.59616595	     23.17192487	      0.40442638	     -1.29047896	     -1.18699282	     -7.49999987	    -13.94214183	     -2.59169176	     -3.39261353	     52.54829746	      9.87516067	     67.63855415	    130.81890487	     91.09690748	     40.67369356	     11.08963673	     68.31989774	    123.43532282	     69.42065685
     10.80000000	      0.77447517	      2.52724609	      2.87500154	      0.30379360	      0.89243998	      0.11281419	     15.76961569	      5.74113359	     -2.93314480	     35.79381756	      0.62471997	     18.83470315	    -13.18890492	     -7.49999987	     35.90612579	     -3.30586612	      2.93286663	     28.58300318	      0.49886752	     -1.75923578	     -3.53124510	     -7.49999987	    -12.75552880	     -2.90945444	     -2.97904215	     52.62205133	      9.86285672	     67.75304536	    130.97806096	     90.29831469	     40.44734087	     11.47828843	     68.52747160	    123.28079317	     69.21607254
     10.81666670	      0.31867769	      2.92677591	      2.49615952	      0.30525848	      0.89895046	      0.11269825	     14.59689552	      5.33233925	     -2.69066593	     33.27716028	      0.58079601	     18.57450658	    -11.86329213	     -7.49999987	     36.44056694	     -3.44790306	      2.10951047	     33.74262877	      0.58891997	     -1.31156349	     -5.36482300	     -7.49999987	    -11.99124736	     -3.31940444	     -2.37471498	     52.41608195	      9.78637548	     67.77049606	    130.91175976	     89.99964689	     40.42537353	     11.75204864	     68.24853886	    122.68196634	     69.04498108
